<svg xmlns="http://www.w3.org/2000/svg" viewBox="0 0 64 64" fill="none" stroke="#dde3d8" stroke-width="3" stroke-linecap="round" stroke-linejoin="round">
<path d="M7 63c1-13 11-19 25-19s24 6 25 19" fill="#3a2b2b"/>
  <path d="M28 33h8v12h-8z" fill="#1d2625"/>
  <circle cx="32" cy="24" r="13.5" fill="#1d2625"/>
  <path d="M19 22c1-8.5 6.5-12.5 13-12.5S44 13.5 45 22c-3-3.6-6.6-4.8-10-4.8-3.6 0-6.2 2.2-9.4 3.6-2 .9-4.6 1.2-6.6 1.2z" fill="#5a4a34" stroke="none"/>
  <path d="M19.5 19c1-6.8 6-10.8 12.5-10.8S43.5 12.2 44.5 19z" fill="#d86459"/><path d="M12 19.5h40" stroke="#d86459" stroke-width="3.2"/>
  <circle cx="27.4" cy="25" r="2.7" stroke-width="2"/><circle cx="36.6" cy="25" r="2.7" stroke-width="2"/><path d="M28 29.4c1.6 3 6.4 3 8 0z" fill="#dde3d8" stroke-width="2"/>
  <path d="M20 30.5h6M38 31.5h5" stroke="#d86459" stroke-width="2.4"/>
  <path d="M33.5 20l3 3-3.5 1.5 3 3.5" stroke="#d86459" stroke-width="1.8" fill="none"/>
  <circle cx="16.5" cy="44" r="1.6" fill="#d86459" stroke="none"/>
</svg>
